<svg width="20" height="17" viewBox="0 0 20 17" fill="none" xmlns="http://www.w3.org/2000/svg">
<path d="M9.92966 4.052C9.92966 2.67129 11.049 1.552 12.4297 1.552H17.638C18.0982 1.552 18.4713 1.9251 18.4713 2.38534V12.8021C18.4713 13.2623 18.0982 13.6354 17.638 13.6354H12.6605C12.0935 13.6354 11.5377 13.7722 11.0554 14.0703C10.573 14.3684 10.1832 14.7949 9.92966 15.3021M9.92966 4.052C9.92966 2.67129 8.81038 1.552 7.42966 1.552H2.22133C1.76109 1.552 1.388 1.9251 1.388 2.38534V12.8021C1.388 13.2623 1.76109 13.6354 2.22133 13.6354H7.19883C7.76584 13.6354 8.32165 13.7722 8.80398 14.0703C9.2863 14.3684 9.67609 14.7949 9.92966 15.3021M9.92966 4.052V15.3021" stroke="#CAECF1" stroke-width="1.5" stroke-linecap="round" stroke-linejoin="round"/>
</svg>
