<svg width="20" height="21" viewBox="0 0 20 21" fill="none" xmlns="http://www.w3.org/2000/svg">
<path d="M10.6253 9.55216V4.8855C10.6253 3.78093 11.5208 2.8855 12.6253 2.8855H14.042C15.1466 2.8855 16.042 3.78093 16.042 4.8855V9.55216M10.6253 6.21883H12.7087M3.95866 9.55216V6.09807C3.95866 5.76709 4.0408 5.44128 4.19772 5.14987L5.21945 3.25236C5.34112 3.0264 5.57703 2.8855 5.83366 2.8855C6.09029 2.8855 6.3262 3.0264 6.44787 3.25236L7.4696 5.14987C7.62652 5.44128 7.70866 5.76709 7.70866 6.09807V9.55216M2.29199 9.55216H17.7087V15.4688C17.7087 16.5734 16.8132 17.4688 15.7087 17.4688H4.29199C3.18742 17.4688 2.29199 16.5734 2.29199 15.4688V9.55216Z" stroke="#CAECF1" stroke-width="1.5" stroke-linecap="round" stroke-linejoin="round"/>
</svg>
