<svg width="10" height="10" viewBox="0 0 10 10" fill="none" xmlns="http://www.w3.org/2000/svg">
<path d="M4.77284 1.15971C4.79131 1.11248 4.82278 1.07207 4.86323 1.04363C4.90368 1.01519 4.95129 1 5 1C5.04871 1 5.09632 1.01519 5.13677 1.04363C5.17722 1.07207 5.20869 1.11248 5.22716 1.15971L6.15547 3.49985C6.17285 3.54364 6.20141 3.58155 6.23803 3.60942C6.27464 3.63729 6.31787 3.65404 6.36298 3.65781L8.77353 3.86019C8.99152 3.8785 9.07976 4.16375 8.91376 4.31256L7.07723 5.96178C7.04292 5.99254 7.01735 6.03261 7.00332 6.0776C6.9893 6.12258 6.98736 6.17074 6.99772 6.21681L7.55908 8.6824C7.57036 8.73186 7.5674 8.78372 7.55058 8.83143C7.53376 8.87914 7.50382 8.92055 7.46456 8.95043C7.42529 8.98032 7.37846 8.99734 7.32997 8.99934C7.28148 9.00135 7.23351 8.98825 7.19212 8.96169L5.128 7.64076C5.08945 7.61608 5.04516 7.60302 5 7.60302C4.95483 7.60302 4.91054 7.61608 4.872 7.64076L2.80787 8.96215C2.76649 8.9887 2.71852 9.0018 2.67003 8.9998C2.62154 8.9978 2.57471 8.98078 2.53544 8.95089C2.49617 8.92101 2.46624 8.87959 2.44942 8.83189C2.43259 8.78418 2.42964 8.73232 2.44092 8.68285L3.00227 6.21681C3.01268 6.17074 3.01077 6.12257 2.99674 6.07757C2.98272 6.03258 2.95712 5.99251 2.92277 5.96178L1.08624 4.31256C1.04926 4.27951 1.02246 4.23571 1.00925 4.1867C0.996036 4.13768 0.996999 4.08566 1.01201 4.03722C1.02703 3.98878 1.05543 3.9461 1.0936 3.91458C1.13178 3.88307 1.17802 3.86414 1.22647 3.86019L3.63702 3.65781C3.68212 3.65404 3.72536 3.63729 3.76197 3.60942C3.79858 3.58155 3.82715 3.54364 3.84452 3.49985L4.77284 1.15971Z" fill="#FFB800" stroke="#FFB800" stroke-linecap="round" stroke-linejoin="round"/>
</svg>
